<?xml version="1.0" encoding="utf-8"?>
<!-- Generator: Adobe Illustrator 21.0.0, SVG Export Plug-In . SVG Version: 6.00 Build 0)  -->
<svg version="1.1" id="Calque_1" xmlns="http://www.w3.org/2000/svg" xmlns:xlink="http://www.w3.org/1999/xlink" x="0px" y="0px"
	 viewBox="0 0 283.5 283.5" style="enable-background:new 0 0 283.5 283.5;" xml:space="preserve">
<style type="text/css">
	.st0{fill:#FFFFFF;}
	.st1{enable-background:new    ;}
</style>
<path class="st0" d="M257,267.2H26.5V36.7H257V267.2z M39,254.7h205.5V49.2H39V254.7z"/>
<g>
	<g class="st1">
		<path class="st0" d="M116.2,114.1v16.5h11.5v13.2h-11.5v33.6c0,2.5,0.5,4.3,1.4,5.3c1,1.1,2.8,1.6,5.5,1.6c2,0,3.8-0.1,5.3-0.4
			v13.6c-3.5,1.1-7.2,1.6-10.9,1.6c-12.6,0-19-6.4-19.3-19.1v-36.3h-9.8v-13.2h9.8v-16.5H116.2z"/>
		<path class="st0" d="M156.7,197.9h-18v-95.5h18V197.9z"/>
		<path class="st0" d="M172.4,189.1c0-2.9,1-5.2,2.9-7s4.3-2.7,7.2-2.7c2.9,0,5.4,0.9,7.3,2.7s2.9,4.1,2.9,7c0,2.8-1,5.1-2.9,6.9
			c-1.9,1.8-4.4,2.6-7.3,2.6c-2.9,0-5.4-0.9-7.3-2.6C173.4,194.2,172.4,191.9,172.4,189.1z"/>
	</g>
</g>
<polygon class="st0" points="102,43.1 181.4,43.1 140,11.3 "/>
</svg>
